<svg width="24" height="24" viewBox="0 0 24 24" fill="none" xmlns="http://www.w3.org/2000/svg">
<path d="M19.88 18.47C20.36 17.7 20.63 16.8 20.57 15.81C20.44 13.66 18.73 11.84 16.6 11.61C15.9694 11.5366 15.3304 11.5975 14.725 11.7887C14.1197 11.9798 13.5616 12.2969 13.0875 12.7191C12.6133 13.1413 12.2339 13.659 11.9741 14.2382C11.7143 14.8175 11.58 15.4451 11.58 16.08C11.58 18.57 13.59 20.58 16.07 20.58C16.95 20.58 17.77 20.32 18.46 19.88L20.87 22.29C21.26 22.68 21.9 22.68 22.29 22.29C22.68 21.9 22.68 21.26 22.29 20.87L19.88 18.47ZM16.08 18.58C15.417 18.58 14.7811 18.3166 14.3122 17.8478C13.8434 17.3789 13.58 16.743 13.58 16.08C13.58 15.417 13.8434 14.7811 14.3122 14.3122C14.7811 13.8434 15.417 13.58 16.08 13.58C16.743 13.58 17.3789 13.8434 17.8478 14.3122C18.3166 14.7811 18.58 15.417 18.58 16.08C18.58 16.743 18.3166 17.3789 17.8478 17.8478C17.3789 18.3166 16.743 18.58 16.08 18.58ZM15.72 10.08C14.98 10.1 14.27 10.26 13.62 10.53L13.07 9.69999L9.99 14.71C9.90771 14.8442 9.7949 14.957 9.66076 15.0394C9.52661 15.1218 9.37492 15.1713 9.21802 15.184C9.06112 15.1966 8.90345 15.1721 8.75783 15.1123C8.61221 15.0525 8.48276 14.9592 8.38 14.84L6.26 12.37L3.2 17.27C2.89 17.76 2.23 17.89 1.76 17.55C1.34 17.24 1.22 16.66 1.5 16.21L5.28 10.16C5.64 9.58999 6.45 9.52999 6.89 10.04L9 12.5L12.18 7.32999C12.2674 7.18712 12.3895 7.0686 12.5349 6.9854C12.6803 6.90221 12.8443 6.85703 13.0118 6.85403C13.1792 6.85104 13.3448 6.89034 13.493 6.96829C13.6413 7.04624 13.7675 7.16033 13.86 7.29999L15.72 10.08ZM18.31 10.58C17.67 10.3 16.98 10.13 16.26 10.09L20.8 2.89999C21.11 2.40999 21.77 2.28999 22.23 2.62999C22.66 2.93999 22.77 3.52999 22.49 3.96999L18.31 10.58Z" fill="#55DEA9"/>
</svg>
