<svg width="20" height="18" viewBox="0 0 20 18" fill="none" xmlns="http://www.w3.org/2000/svg">
<path d="M8.67 16.97C8.43 16.99 8.19 17 7.95 17C6.78 17 5.66999 16.72 4.67999 16.23L0.789993 16.79L1.38 12.88H1.39C0.989999 12 0.75 11.03 0.75 10C0.75 8.11001 1.51999 6.40001 2.75999 5.14001" stroke="#7D6AF0" stroke-width="1.5" stroke-linecap="round" stroke-linejoin="round"/>
<path d="M8.86 8.77997C9.30183 8.77997 9.66 8.43075 9.66 7.99997C9.66 7.56919 9.30183 7.21997 8.86 7.21997C8.41817 7.21997 8.06 7.56919 8.06 7.99997C8.06 8.43075 8.41817 8.77997 8.86 8.77997Z" fill="#7D6AF0"/>
<path d="M12.06 8.77997C12.5018 8.77997 12.86 8.43075 12.86 7.99997C12.86 7.56919 12.5018 7.21997 12.06 7.21997C11.6182 7.21997 11.26 7.56919 11.26 7.99997C11.26 8.43075 11.6182 8.77997 12.06 8.77997Z" fill="#7D6AF0"/>
<path d="M15.25 8.77997C15.6918 8.77997 16.05 8.43075 16.05 7.99997C16.05 7.56919 15.6918 7.21997 15.25 7.21997C14.8082 7.21997 14.45 7.56919 14.45 7.99997C14.45 8.43075 14.8082 8.77997 15.25 8.77997Z" fill="#7D6AF0"/>
<path d="M18.62 10.88L19.21 14.79L15.32 14.23C14.62 14.58 13.86 14.82 13.05 14.93C12.73 14.98 12.39 15 12.05 15C8.06999 15 4.85999 11.87 4.85999 8C4.85999 6.07 5.64998 4.35 6.94998 3.08C8.23998 1.79 10.05 1 12.06 1C16.04 1 19.25 4.13 19.25 8C19.25 9.03 19.01 10 18.61 10.88H18.62V10.88Z" stroke="#7D6AF0" stroke-width="1.5" stroke-linecap="round" stroke-linejoin="round"/>
</svg>
