<svg width="20" height="19" viewBox="0 0 20 19" fill="none" xmlns="http://www.w3.org/2000/svg">
<path d="M6.68001 7.85999H3.32002C2.39002 7.85999 1.64001 7.10999 1.64001 6.17999V2.82001C1.64001 1.89001 2.39002 1.14001 3.32002 1.14001H6.68001C7.61001 1.14001 8.36002 1.89001 8.36002 2.82001V6.17999C8.36002 7.10999 7.61001 7.85999 6.68001 7.85999Z" stroke="white" stroke-width="1.5" stroke-linecap="round" stroke-linejoin="round"/>
<path d="M16.68 7.85999H13.32C12.39 7.85999 11.64 7.10999 11.64 6.17999V2.82001C11.64 1.89001 12.39 1.14001 13.32 1.14001H16.68C17.61 1.14001 18.36 1.89001 18.36 2.82001V6.17999C18.36 7.10999 17.61 7.85999 16.68 7.85999Z" stroke="white" stroke-width="1.5" stroke-linecap="round" stroke-linejoin="round"/>
<path d="M6.68001 17.86H3.32002C2.39002 17.86 1.64001 17.11 1.64001 16.18V12.82C1.64001 11.89 2.39002 11.14 3.32002 11.14H6.68001C7.61001 11.14 8.36002 11.89 8.36002 12.82V16.18C8.36002 17.11 7.61001 17.86 6.68001 17.86Z" stroke="white" stroke-width="1.5" stroke-linecap="round" stroke-linejoin="round"/>
<path d="M16.68 17.86H13.32C12.39 17.86 11.64 17.11 11.64 16.18V12.82C11.64 11.89 12.39 11.14 13.32 11.14H16.68C17.61 11.14 18.36 11.89 18.36 12.82V16.18C18.36 17.11 17.61 17.86 16.68 17.86Z" stroke="white" stroke-width="1.5" stroke-linecap="round" stroke-linejoin="round"/>
</svg>
