<svg width="24" height="25" viewBox="0 0 24 25" fill="none" xmlns="http://www.w3.org/2000/svg">
<path d="M20.22 17.12C20.22 17.97 19.53 18.66 18.68 18.66H5.32004C4.47004 18.66 3.78003 17.97 3.78003 17.12C3.78003 16.27 4.47004 15.58 5.32004 15.58H5.83002V10.44C5.83002 7.04002 8.59003 4.27002 12 4.27002C13.7 4.27002 15.24 4.96002 16.36 6.08002C17.48 7.19002 18.17 8.73002 18.17 10.44V15.58H18.68C19.53 15.58 20.22 16.27 20.22 17.12Z" stroke="white" stroke-width="1.5" stroke-linecap="round" stroke-linejoin="round"/>
<path d="M12 4.28V3.25" stroke="white" stroke-width="1.5" stroke-linecap="round" stroke-linejoin="round"/>
<path d="M15.08 18.67C15.08 20.38 13.7 21.75 12 21.75C10.3 21.75 8.92004 20.37 8.92004 18.67H15.08Z" stroke="white" stroke-width="1.5" stroke-linecap="round" stroke-linejoin="round"/>
</svg>
