<svg width="24" height="24" viewBox="0 0 24 24" fill="none" xmlns="http://www.w3.org/2000/svg">
<path d="M18.71 21.2499H8.48001C7.08001 21.2499 5.94 20.1099 5.94 18.7099V8.47995C5.94 7.07995 7.08001 5.93994 8.48001 5.93994H18.71C20.11 5.93994 21.25 7.07995 21.25 8.47995V18.7099C21.25 20.1099 20.11 21.2499 18.71 21.2499Z" stroke="white" stroke-opacity="0.8" stroke-width="1.5" stroke-linecap="round" stroke-linejoin="round"/>
<path d="M3.48999 17.32C3.02999 16.86 2.75 16.22 2.75 15.52V5.29001C2.75 3.89001 3.89001 2.75 5.29001 2.75H15.52C16.31 2.75 17.02 3.10999 17.49 3.67999" stroke="white" stroke-opacity="0.8" stroke-width="1.5" stroke-linecap="round" stroke-linejoin="round"/>
<path d="M5.94 18.1L8.87 15.17C9.37 14.67 10.18 14.67 10.67 15.17L11.42 15.92C11.92 16.42 12.73 16.42 13.22 15.92L16.52 12.62C17.02 12.12 17.83 12.12 18.32 12.62L21.25 15.55" stroke="white" stroke-opacity="0.8" stroke-width="1.5" stroke-linecap="round" stroke-linejoin="round"/>
<path d="M10.41 8.42004C9.64003 8.42004 9.02002 9.04003 9.02002 9.81003C9.02002 10.58 9.64003 11.2 10.41 11.2C11.18 11.2 11.8 10.58 11.8 9.81003C11.8 9.04003 11.17 8.42004 10.41 8.42004Z" fill="white" fill-opacity="0.8"/>
</svg>
