<svg width="26" height="26" viewBox="0 0 26 26" fill="none" xmlns="http://www.w3.org/2000/svg">
<circle cx="13" cy="13" r="13" fill="#9483FD"/>
<path d="M10.8994 15.8008C11.4944 16.2418 12.2189 16.5008 12.9994 16.5008C13.7799 16.5008 14.5044 16.2418 15.0994 15.8008" stroke="#3C29AB" stroke-linecap="round"/>
<path d="M15.7994 11.9504C15.7994 12.53 15.4858 13.0004 15.0994 13.0004C14.713 13.0004 14.3994 12.53 14.3994 11.9504C14.3994 11.3708 14.713 10.9004 15.0994 10.9004C15.4858 10.9004 15.7994 11.3708 15.7994 11.9504Z" fill="#3C29AB"/>
<path d="M10.9002 13.0004C11.2868 13.0004 11.6002 12.5303 11.6002 11.9504C11.6002 11.3705 11.2868 10.9004 10.9002 10.9004C10.5136 10.9004 10.2002 11.3705 10.2002 11.9504C10.2002 12.5303 10.5136 13.0004 10.9002 13.0004Z" fill="#3C29AB"/>
<path d="M9.5 6.93661C10.5637 6.32124 11.7712 5.99811 13 6.00001C16.8661 6.00001 20 9.13391 20 13C20 16.8661 16.8661 20 13 20C9.1339 20 6 16.8661 6 13C6 11.7253 6.3409 10.529 6.9366 9.50001" stroke="#3C29AB" stroke-linecap="round"/>
</svg>
