<svg width="20" height="6" viewBox="0 0 20 6" fill="none" xmlns="http://www.w3.org/2000/svg">
<path d="M17.19 5.06C18.3277 5.06 19.25 4.13771 19.25 3C19.25 1.86229 18.3277 0.940002 17.19 0.940002C16.0523 0.940002 15.13 1.86229 15.13 3C15.13 4.13771 16.0523 5.06 17.19 5.06Z" stroke="white" stroke-width="1.5" stroke-linecap="round" stroke-linejoin="round"/>
<path d="M10.0004 5.06C11.1381 5.06 12.0604 4.13771 12.0604 3C12.0604 1.86229 11.1381 0.940002 10.0004 0.940002C8.86272 0.940002 7.94043 1.86229 7.94043 3C7.94043 4.13771 8.86272 5.06 10.0004 5.06Z" stroke="white" stroke-width="1.5" stroke-linecap="round" stroke-linejoin="round"/>
<path d="M2.81 5.06C3.9477 5.06 4.87 4.13771 4.87 3C4.87 1.86229 3.9477 0.940002 2.81 0.940002C1.67229 0.940002 0.75 1.86229 0.75 3C0.75 4.13771 1.67229 5.06 2.81 5.06Z" stroke="white" stroke-width="1.5" stroke-linecap="round" stroke-linejoin="round"/>
</svg>
