<svg width="24" height="24" viewBox="0 0 24 24" fill="none" xmlns="http://www.w3.org/2000/svg">
<path d="M21 8.85776C21 9.96693 20.5719 11.0857 19.7059 11.9367L18.2659 13.3518L12.0681 19.4426C12.0389 19.4713 12.0292 19.4809 12 19.5C11.9708 19.4809 11.9611 19.4713 11.9319 19.4426L4.29406 11.9367C3.42811 11.0857 3 9.97649 3 8.85776C3 7.73904 3.42811 6.62032 4.29406 5.76932C6.02595 4.07689 8.8281 4.07689 10.56 5.76932L11.9903 7.18446L13.4303 5.76932C15.1622 4.07689 17.9546 4.07689 19.6865 5.76932C20.5719 6.62032 21 7.72948 21 8.85776Z" stroke="#7D6AF0" stroke-width="1.5" stroke-linecap="round" stroke-linejoin="round"/>
</svg>
