<svg width="24" height="25" viewBox="0 0 24 25" fill="none" xmlns="http://www.w3.org/2000/svg">
<path d="M8.68001 10.86H5.32002C4.39002 10.86 3.64001 10.11 3.64001 9.17999V5.82001C3.64001 4.89001 4.39002 4.14001 5.32002 4.14001H8.68001C9.61001 4.14001 10.36 4.89001 10.36 5.82001V9.17999C10.36 10.11 9.61001 10.86 8.68001 10.86Z" stroke="white" stroke-width="1.5" stroke-linecap="round" stroke-linejoin="round"/>
<path d="M18.68 10.86H15.32C14.39 10.86 13.64 10.11 13.64 9.17999V5.82001C13.64 4.89001 14.39 4.14001 15.32 4.14001H18.68C19.61 4.14001 20.36 4.89001 20.36 5.82001V9.17999C20.36 10.11 19.61 10.86 18.68 10.86Z" stroke="white" stroke-width="1.5" stroke-linecap="round" stroke-linejoin="round"/>
<path d="M8.68001 20.86H5.32002C4.39002 20.86 3.64001 20.11 3.64001 19.18V15.82C3.64001 14.89 4.39002 14.14 5.32002 14.14H8.68001C9.61001 14.14 10.36 14.89 10.36 15.82V19.18C10.36 20.11 9.61001 20.86 8.68001 20.86Z" stroke="white" stroke-width="1.5" stroke-linecap="round" stroke-linejoin="round"/>
<path d="M18.68 20.86H15.32C14.39 20.86 13.64 20.11 13.64 19.18V15.82C13.64 14.89 14.39 14.14 15.32 14.14H18.68C19.61 14.14 20.36 14.89 20.36 15.82V19.18C20.36 20.11 19.61 20.86 18.68 20.86Z" stroke="white" stroke-width="1.5" stroke-linecap="round" stroke-linejoin="round"/>
</svg>
