<svg width="18" height="21" viewBox="0 0 18 21" fill="none" xmlns="http://www.w3.org/2000/svg">
<path d="M0.76001 16.11V12.12C0.76001 10.38 2.17001 8.95999 3.92001 8.95999H14.09C15.83 8.95999 17.25 10.37 17.25 12.12V16.11C17.25 17.85 15.84 19.27 14.09 19.27H3.92001C2.17001 19.27 0.76001 17.86 0.76001 16.11Z" stroke="#5F6D76" stroke-width="1.5" stroke-linecap="round" stroke-linejoin="round"/>
<path d="M3.85001 8.96999V5.91999C3.85001 3.07999 6.16 0.769989 9 0.769989C11.84 0.769989 14.15 3.07999 14.15 5.91999V8.96999H3.85001Z" stroke="#5F6D76" stroke-width="1.5" stroke-linecap="round" stroke-linejoin="round"/>
<path d="M9 16.18V13.6" stroke="#5F6D76" stroke-width="1.5" stroke-linecap="round" stroke-linejoin="round"/>
<path d="M9 14.12C9.56885 14.12 10.03 13.6588 10.03 13.09C10.03 12.5211 9.56885 12.06 9 12.06C8.43115 12.06 7.97 12.5211 7.97 13.09C7.97 13.6588 8.43115 14.12 9 14.12Z" fill="#5F6D76" stroke="#5F6D76" stroke-width="1.5" stroke-linecap="round" stroke-linejoin="round"/>
</svg>
