<svg width="26" height="26" viewBox="0 0 26 26" fill="none" xmlns="http://www.w3.org/2000/svg">
<circle cx="13" cy="13" r="13" fill="#9483FD"/>
<g clip-path="url(#clip0_1_414)">
<path d="M7.5 8.5C7.23478 8.5 6.98043 8.60536 6.79289 8.79289C6.60536 8.98043 6.5 9.23478 6.5 9.5V18.5C6.5 18.7652 6.60536 19.0196 6.79289 19.2071C6.98043 19.3946 7.23478 19.5 7.5 19.5H18.5C18.7652 19.5 19.0196 19.3946 19.2071 19.2071C19.3946 19.0196 19.5 18.7652 19.5 18.5V9.5C19.5 9.23478 19.3946 8.98043 19.2071 8.79289C19.0196 8.60536 18.7652 8.5 18.5 8.5H16.5M9.5 6.5V10.5M16.5 6.5V10.5M9.5 8.5H14.5" stroke="#3C29AB" stroke-linecap="round" stroke-linejoin="round"/>
<path d="M13 13.5C14 11.5 16 12.5 16 14C16 16 13 17 13 17C13 17 10 16 10 14C10 12.5 12 11.5 13 13.5Z" stroke="#3C29AB" stroke-linecap="round" stroke-linejoin="round"/>
</g>
<defs>
<clipPath id="clip0_1_414">
<rect width="14" height="14" fill="white" transform="translate(6 6)"/>
</clipPath>
</defs>
</svg>
