<svg width="26" height="26" viewBox="0 0 26 26" fill="none" xmlns="http://www.w3.org/2000/svg">
<circle cx="13" cy="13" r="13" fill="#9483FD"/>
<path d="M18 9.64065H15.8075C15.8319 9.6192 15.8569 9.59841 15.8806 9.57566C16.0704 9.40029 16.2234 9.18607 16.33 8.94641C16.4366 8.70674 16.4944 8.44679 16.5 8.18281C16.5082 7.89401 16.4596 7.60652 16.3571 7.33799C16.2546 7.06945 16.1004 6.82553 15.904 6.6212C15.7075 6.41688 15.473 6.25645 15.2148 6.14979C14.9566 6.04312 14.6802 5.99246 14.4025 6.00091C14.1485 6.0066 13.8985 6.06674 13.6679 6.17757C13.4373 6.2884 13.2312 6.44754 13.0625 6.64501C12.8291 6.92637 12.6393 7.24391 12.5 7.58615C12.3607 7.24391 12.1709 6.92637 11.9375 6.64501C11.7688 6.44754 11.5627 6.2884 11.3321 6.17757C11.1015 6.06674 10.8515 6.0066 10.5975 6.00091C10.3198 5.99246 10.0434 6.04312 9.78516 6.14979C9.52696 6.25645 9.29245 6.41688 9.09603 6.6212C8.89961 6.82553 8.74542 7.06945 8.64292 7.33799C8.54043 7.60652 8.49179 7.89401 8.5 8.18281C8.50556 8.44679 8.56343 8.70674 8.67 8.94641C8.77658 9.18607 8.92956 9.40029 9.11938 9.57566C9.14313 9.59711 9.16813 9.6179 9.1925 9.64065H7C6.73478 9.64065 6.48043 9.75022 6.29289 9.94524C6.10536 10.1403 6 10.4048 6 10.6806V12.7604C6 13.0362 6.10536 13.3008 6.29289 13.4958C6.48043 13.6908 6.73478 13.8004 7 13.8004V17.9601C7 18.2359 7.10536 18.5004 7.29289 18.6954C7.48043 18.8904 7.73478 19 8 19H17C17.2652 19 17.5196 18.8904 17.7071 18.6954C17.8946 18.5004 18 18.2359 18 17.9601V13.8004C18.2652 13.8004 18.5196 13.6908 18.7071 13.4958C18.8946 13.3008 19 13.0362 19 12.7604V10.6806C19 10.4048 18.8946 10.1403 18.7071 9.94524C18.5196 9.75022 18.2652 9.64065 18 9.64065ZM13.8125 7.33396C13.8917 7.24305 13.9881 7.17014 14.0956 7.1198C14.2032 7.06947 14.3196 7.04281 14.4375 7.04148H14.4681C14.6064 7.04238 14.743 7.07196 14.8701 7.12849C14.9972 7.18503 15.1122 7.26737 15.2083 7.3707C15.3044 7.47403 15.3797 7.59626 15.4298 7.73024C15.4799 7.86423 15.5037 8.00726 15.5 8.15096C15.4987 8.2736 15.4731 8.39465 15.4247 8.5065C15.3763 8.61835 15.3062 8.71858 15.2188 8.80091C14.6256 9.34687 13.6413 9.53926 13.0312 9.60686C13.1062 8.91855 13.3125 7.91827 13.8125 7.33396ZM9.80688 7.35736C10.0006 7.15594 10.2629 7.04218 10.5369 7.04083H10.5675C10.6854 7.04216 10.8018 7.06882 10.9094 7.11915C11.0169 7.16949 11.1133 7.2424 11.1925 7.33331C11.7169 7.94947 11.9019 8.9712 11.9669 9.60296C11.3594 9.53796 10.3769 9.34297 9.78438 8.79766C9.69695 8.71533 9.62684 8.6151 9.57844 8.50325C9.53004 8.3914 9.5044 8.27035 9.50313 8.14771C9.49925 8.00162 9.52395 7.85624 9.57574 7.72038C9.62752 7.58452 9.70531 7.46102 9.80438 7.35736H9.80688ZM7 10.6806H12V12.7604H7V10.6806ZM8 13.8004H12V17.9601H8V13.8004ZM17 17.9601H13V13.8004H17V17.9601ZM18 12.7604H13V10.6806H18V12.7604Z" fill="#3C29AB"/>
</svg>
