<svg width="26" height="26" viewBox="0 0 26 26" fill="none" xmlns="http://www.w3.org/2000/svg">
<circle cx="13" cy="13" r="13" fill="#9483FD"/>
<path d="M10.8994 15.8003C11.4944 16.2413 12.2189 16.5003 12.9994 16.5003C13.7799 16.5003 14.5044 16.2413 15.0994 15.8003" stroke="#3C29AB" stroke-linecap="round"/>
<path d="M15.7994 11.9499C15.7994 12.5295 15.4858 12.9999 15.0994 12.9999C14.713 12.9999 14.3994 12.5295 14.3994 11.9499C14.3994 11.3703 14.713 10.8999 15.0994 10.8999C15.4858 10.8999 15.7994 11.3703 15.7994 11.9499Z" fill="#3C29AB"/>
<path d="M10.9002 12.9999C11.2868 12.9999 11.6002 12.5298 11.6002 11.9499C11.6002 11.37 11.2868 10.8999 10.9002 10.8999C10.5136 10.8999 10.2002 11.37 10.2002 11.9499C10.2002 12.5298 10.5136 12.9999 10.9002 12.9999Z" fill="#3C29AB"/>
<path d="M9.5 6.93661C10.5637 6.32124 11.7712 5.99811 13 6.00001C16.8661 6.00001 20 9.13391 20 13C20 16.8661 16.8661 20 13 20C9.1339 20 6 16.8661 6 13C6 11.7253 6.3409 10.529 6.9366 9.50001" stroke="#3C29AB" stroke-linecap="round"/>
</svg>
