<svg width="24" height="24" viewBox="0 0 24 24" fill="none" xmlns="http://www.w3.org/2000/svg">
<path d="M20.7992 10.5597C21.1979 10.1642 20.9671 9.43896 20.4214 9.37303L15.3637 8.60386C15.1538 8.55991 14.9649 8.42807 14.86 8.20831L12.5934 3.39557C12.3416 2.86814 11.6281 2.86814 11.3973 3.39557L9.13067 8.20831C9.02574 8.40609 8.83688 8.55991 8.62701 8.60386L3.56925 9.37303C3.0236 9.46093 2.81375 10.1642 3.19151 10.5597L6.86415 14.2956C7.03204 14.4714 7.09499 14.6912 7.05302 14.9109L6.19257 20.1852C6.08763 20.7565 6.67524 21.1961 7.15793 20.9104L11.691 18.4271C11.8799 18.3172 12.1318 18.3172 12.3207 18.4271L16.8537 20.9104C17.3364 21.1741 17.9241 20.7346 17.8191 20.1852L16.9587 14.9109C16.9167 14.6912 17.0006 14.4495 17.1475 14.2956L20.7992 10.5597Z" stroke="#7D6AF0" stroke-width="1.5" stroke-linecap="round" stroke-linejoin="round"/>
</svg>
